<mxfile host="app.diagrams.net" modified="2024-02-22T05:23:04.358Z" agent="Mozilla/5.0 (Windows NT 10.0; Win64; x64; rv:123.0) Gecko/20100101 Firefox/123.0" etag="yk-BRUWcaHiG8KejKsJQ" version="23.1.5" type="device">
  <diagram name="Seite-1" id="foNG5Nwx4ywNwQEWDff7">
    <mxGraphModel dx="601" dy="781" grid="1" gridSize="10" guides="1" tooltips="1" connect="1" arrows="1" fold="1" page="1" pageScale="1" pageWidth="827" pageHeight="1169" math="0" shadow="0">
      <root>
        <mxCell id="0" />
        <mxCell id="1" parent="0" />
        <mxCell id="X8M3YkZeqbTWGryuC8nD-9" style="rounded=0;orthogonalLoop=1;jettySize=auto;html=1;entryX=0.5;entryY=0;entryDx=0;entryDy=0;endArrow=none;endFill=0;" edge="1" parent="1" source="X8M3YkZeqbTWGryuC8nD-1" target="X8M3YkZeqbTWGryuC8nD-4">
          <mxGeometry relative="1" as="geometry" />
        </mxCell>
        <mxCell id="X8M3YkZeqbTWGryuC8nD-44" style="edgeStyle=orthogonalEdgeStyle;rounded=0;orthogonalLoop=1;jettySize=auto;html=1;curved=1;entryX=0.574;entryY=-0.119;entryDx=0;entryDy=0;entryPerimeter=0;" edge="1" parent="1" source="X8M3YkZeqbTWGryuC8nD-1" target="X8M3YkZeqbTWGryuC8nD-41">
          <mxGeometry relative="1" as="geometry">
            <mxPoint x="70" y="100" as="targetPoint" />
            <Array as="points">
              <mxPoint x="120" y="90" />
              <mxPoint x="69" y="90" />
            </Array>
          </mxGeometry>
        </mxCell>
        <mxCell id="X8M3YkZeqbTWGryuC8nD-1" value="w&lt;sup&gt;(L)&lt;/sup&gt;" style="text;html=1;align=center;verticalAlign=middle;resizable=0;points=[];autosize=1;strokeColor=none;fillColor=none;" vertex="1" parent="1">
          <mxGeometry x="90" y="158" width="40" height="30" as="geometry" />
        </mxCell>
        <mxCell id="X8M3YkZeqbTWGryuC8nD-10" style="edgeStyle=orthogonalEdgeStyle;rounded=0;orthogonalLoop=1;jettySize=auto;html=1;endArrow=none;endFill=0;" edge="1" parent="1" source="X8M3YkZeqbTWGryuC8nD-2" target="X8M3YkZeqbTWGryuC8nD-4">
          <mxGeometry relative="1" as="geometry" />
        </mxCell>
        <mxCell id="X8M3YkZeqbTWGryuC8nD-2" value="a&lt;sup&gt;(L-1)&lt;/sup&gt;" style="text;html=1;align=center;verticalAlign=middle;whiteSpace=wrap;rounded=0;" vertex="1" parent="1">
          <mxGeometry x="160" y="158" width="60" height="30" as="geometry" />
        </mxCell>
        <mxCell id="X8M3YkZeqbTWGryuC8nD-11" style="rounded=0;orthogonalLoop=1;jettySize=auto;html=1;entryX=0.5;entryY=0;entryDx=0;entryDy=0;endArrow=none;endFill=0;" edge="1" parent="1" source="X8M3YkZeqbTWGryuC8nD-3" target="X8M3YkZeqbTWGryuC8nD-4">
          <mxGeometry relative="1" as="geometry" />
        </mxCell>
        <mxCell id="X8M3YkZeqbTWGryuC8nD-3" value="b&lt;sup&gt;(L)&lt;/sup&gt;" style="text;html=1;align=center;verticalAlign=middle;whiteSpace=wrap;rounded=0;" vertex="1" parent="1">
          <mxGeometry x="260" y="158" width="60" height="30" as="geometry" />
        </mxCell>
        <mxCell id="X8M3YkZeqbTWGryuC8nD-12" style="edgeStyle=orthogonalEdgeStyle;rounded=0;orthogonalLoop=1;jettySize=auto;html=1;endArrow=none;endFill=0;" edge="1" parent="1" source="X8M3YkZeqbTWGryuC8nD-4" target="X8M3YkZeqbTWGryuC8nD-5">
          <mxGeometry relative="1" as="geometry" />
        </mxCell>
        <mxCell id="X8M3YkZeqbTWGryuC8nD-4" value="z&lt;sup&gt;(L)&lt;/sup&gt;" style="text;html=1;align=center;verticalAlign=middle;whiteSpace=wrap;rounded=0;" vertex="1" parent="1">
          <mxGeometry x="160" y="250" width="60" height="30" as="geometry" />
        </mxCell>
        <mxCell id="X8M3YkZeqbTWGryuC8nD-13" style="edgeStyle=orthogonalEdgeStyle;rounded=0;orthogonalLoop=1;jettySize=auto;html=1;endArrow=none;endFill=0;" edge="1" parent="1" source="X8M3YkZeqbTWGryuC8nD-5" target="X8M3YkZeqbTWGryuC8nD-7">
          <mxGeometry relative="1" as="geometry" />
        </mxCell>
        <mxCell id="X8M3YkZeqbTWGryuC8nD-5" value="a&lt;sup&gt;(L)&lt;/sup&gt;" style="text;html=1;align=center;verticalAlign=middle;whiteSpace=wrap;rounded=0;" vertex="1" parent="1">
          <mxGeometry x="160" y="330" width="60" height="30" as="geometry" />
        </mxCell>
        <mxCell id="X8M3YkZeqbTWGryuC8nD-14" style="rounded=0;orthogonalLoop=1;jettySize=auto;html=1;endArrow=none;endFill=0;" edge="1" parent="1" source="X8M3YkZeqbTWGryuC8nD-6" target="X8M3YkZeqbTWGryuC8nD-7">
          <mxGeometry relative="1" as="geometry" />
        </mxCell>
        <mxCell id="X8M3YkZeqbTWGryuC8nD-6" value="y" style="text;html=1;align=center;verticalAlign=middle;whiteSpace=wrap;rounded=0;" vertex="1" parent="1">
          <mxGeometry x="90" y="330" width="60" height="30" as="geometry" />
        </mxCell>
        <mxCell id="X8M3YkZeqbTWGryuC8nD-45" style="edgeStyle=orthogonalEdgeStyle;rounded=0;orthogonalLoop=1;jettySize=auto;html=1;curved=1;entryX=0.5;entryY=0;entryDx=0;entryDy=0;" edge="1" parent="1" source="X8M3YkZeqbTWGryuC8nD-7" target="X8M3YkZeqbTWGryuC8nD-42">
          <mxGeometry relative="1" as="geometry">
            <mxPoint x="270" y="390" as="targetPoint" />
            <Array as="points">
              <mxPoint x="230" y="415" />
              <mxPoint x="230" y="370" />
              <mxPoint x="265" y="370" />
            </Array>
          </mxGeometry>
        </mxCell>
        <mxCell id="X8M3YkZeqbTWGryuC8nD-7" value="C&lt;sub&gt;0&lt;/sub&gt;" style="text;html=1;align=center;verticalAlign=middle;whiteSpace=wrap;rounded=0;" vertex="1" parent="1">
          <mxGeometry x="170" y="400" width="40" height="30" as="geometry" />
        </mxCell>
        <mxCell id="X8M3YkZeqbTWGryuC8nD-28" value="" style="group" vertex="1" connectable="0" parent="1">
          <mxGeometry x="210" y="440" width="60" height="8" as="geometry" />
        </mxCell>
        <mxCell id="X8M3YkZeqbTWGryuC8nD-16" value="" style="endArrow=none;html=1;rounded=0;" edge="1" parent="X8M3YkZeqbTWGryuC8nD-28">
          <mxGeometry width="50" height="50" relative="1" as="geometry">
            <mxPoint y="3" as="sourcePoint" />
            <mxPoint x="60" y="3" as="targetPoint" />
          </mxGeometry>
        </mxCell>
        <mxCell id="X8M3YkZeqbTWGryuC8nD-17" value="" style="endArrow=none;html=1;rounded=0;" edge="1" parent="X8M3YkZeqbTWGryuC8nD-28">
          <mxGeometry width="50" height="50" relative="1" as="geometry">
            <mxPoint y="8" as="sourcePoint" />
            <mxPoint y="-2" as="targetPoint" />
            <Array as="points">
              <mxPoint y="8" />
            </Array>
          </mxGeometry>
        </mxCell>
        <mxCell id="X8M3YkZeqbTWGryuC8nD-18" value="" style="endArrow=none;html=1;rounded=0;" edge="1" parent="X8M3YkZeqbTWGryuC8nD-28">
          <mxGeometry width="50" height="50" relative="1" as="geometry">
            <mxPoint x="60" y="8" as="sourcePoint" />
            <mxPoint x="60" y="-2" as="targetPoint" />
            <Array as="points">
              <mxPoint x="60" y="8" />
            </Array>
          </mxGeometry>
        </mxCell>
        <mxCell id="X8M3YkZeqbTWGryuC8nD-19" value="" style="endArrow=none;html=1;rounded=0;" edge="1" parent="X8M3YkZeqbTWGryuC8nD-28">
          <mxGeometry width="50" height="50" relative="1" as="geometry">
            <mxPoint x="10" as="sourcePoint" />
            <mxPoint x="10" y="5" as="targetPoint" />
            <Array as="points">
              <mxPoint x="10" />
            </Array>
          </mxGeometry>
        </mxCell>
        <mxCell id="X8M3YkZeqbTWGryuC8nD-24" value="" style="endArrow=none;html=1;rounded=0;" edge="1" parent="X8M3YkZeqbTWGryuC8nD-28">
          <mxGeometry width="50" height="50" relative="1" as="geometry">
            <mxPoint x="20" as="sourcePoint" />
            <mxPoint x="20" y="5" as="targetPoint" />
            <Array as="points">
              <mxPoint x="20" />
            </Array>
          </mxGeometry>
        </mxCell>
        <mxCell id="X8M3YkZeqbTWGryuC8nD-25" value="" style="endArrow=none;html=1;rounded=0;" edge="1" parent="X8M3YkZeqbTWGryuC8nD-28">
          <mxGeometry width="50" height="50" relative="1" as="geometry">
            <mxPoint x="30" as="sourcePoint" />
            <mxPoint x="30" y="5" as="targetPoint" />
            <Array as="points">
              <mxPoint x="30" />
            </Array>
          </mxGeometry>
        </mxCell>
        <mxCell id="X8M3YkZeqbTWGryuC8nD-26" value="" style="endArrow=none;html=1;rounded=0;" edge="1" parent="X8M3YkZeqbTWGryuC8nD-28">
          <mxGeometry width="50" height="50" relative="1" as="geometry">
            <mxPoint x="40" as="sourcePoint" />
            <mxPoint x="40" y="5" as="targetPoint" />
            <Array as="points">
              <mxPoint x="40" />
            </Array>
          </mxGeometry>
        </mxCell>
        <mxCell id="X8M3YkZeqbTWGryuC8nD-27" value="" style="endArrow=none;html=1;rounded=0;" edge="1" parent="X8M3YkZeqbTWGryuC8nD-28">
          <mxGeometry width="50" height="50" relative="1" as="geometry">
            <mxPoint x="50" as="sourcePoint" />
            <mxPoint x="50" y="5" as="targetPoint" />
            <Array as="points">
              <mxPoint x="50" />
            </Array>
          </mxGeometry>
        </mxCell>
        <mxCell id="X8M3YkZeqbTWGryuC8nD-29" value="" style="group" vertex="1" connectable="0" parent="1">
          <mxGeometry x="30" y="160" width="60" height="8" as="geometry" />
        </mxCell>
        <mxCell id="X8M3YkZeqbTWGryuC8nD-30" value="" style="endArrow=none;html=1;rounded=0;" edge="1" parent="X8M3YkZeqbTWGryuC8nD-29">
          <mxGeometry width="50" height="50" relative="1" as="geometry">
            <mxPoint y="3" as="sourcePoint" />
            <mxPoint x="60" y="3" as="targetPoint" />
          </mxGeometry>
        </mxCell>
        <mxCell id="X8M3YkZeqbTWGryuC8nD-31" value="" style="endArrow=none;html=1;rounded=0;" edge="1" parent="X8M3YkZeqbTWGryuC8nD-29">
          <mxGeometry width="50" height="50" relative="1" as="geometry">
            <mxPoint y="8" as="sourcePoint" />
            <mxPoint y="-2" as="targetPoint" />
            <Array as="points">
              <mxPoint y="8" />
            </Array>
          </mxGeometry>
        </mxCell>
        <mxCell id="X8M3YkZeqbTWGryuC8nD-32" value="" style="endArrow=none;html=1;rounded=0;" edge="1" parent="X8M3YkZeqbTWGryuC8nD-29">
          <mxGeometry width="50" height="50" relative="1" as="geometry">
            <mxPoint x="60" y="8" as="sourcePoint" />
            <mxPoint x="60" y="-2" as="targetPoint" />
            <Array as="points">
              <mxPoint x="60" y="8" />
            </Array>
          </mxGeometry>
        </mxCell>
        <mxCell id="X8M3YkZeqbTWGryuC8nD-33" value="" style="endArrow=none;html=1;rounded=0;" edge="1" parent="X8M3YkZeqbTWGryuC8nD-29">
          <mxGeometry width="50" height="50" relative="1" as="geometry">
            <mxPoint x="10" as="sourcePoint" />
            <mxPoint x="10" y="5" as="targetPoint" />
            <Array as="points">
              <mxPoint x="10" />
            </Array>
          </mxGeometry>
        </mxCell>
        <mxCell id="X8M3YkZeqbTWGryuC8nD-34" value="" style="endArrow=none;html=1;rounded=0;" edge="1" parent="X8M3YkZeqbTWGryuC8nD-29">
          <mxGeometry width="50" height="50" relative="1" as="geometry">
            <mxPoint x="20" as="sourcePoint" />
            <mxPoint x="20" y="5" as="targetPoint" />
            <Array as="points">
              <mxPoint x="20" />
            </Array>
          </mxGeometry>
        </mxCell>
        <mxCell id="X8M3YkZeqbTWGryuC8nD-35" value="" style="endArrow=none;html=1;rounded=0;" edge="1" parent="X8M3YkZeqbTWGryuC8nD-29">
          <mxGeometry width="50" height="50" relative="1" as="geometry">
            <mxPoint x="30" as="sourcePoint" />
            <mxPoint x="30" y="5" as="targetPoint" />
            <Array as="points">
              <mxPoint x="30" />
            </Array>
          </mxGeometry>
        </mxCell>
        <mxCell id="X8M3YkZeqbTWGryuC8nD-36" value="" style="endArrow=none;html=1;rounded=0;" edge="1" parent="X8M3YkZeqbTWGryuC8nD-29">
          <mxGeometry width="50" height="50" relative="1" as="geometry">
            <mxPoint x="40" as="sourcePoint" />
            <mxPoint x="40" y="5" as="targetPoint" />
            <Array as="points">
              <mxPoint x="40" />
            </Array>
          </mxGeometry>
        </mxCell>
        <mxCell id="X8M3YkZeqbTWGryuC8nD-37" value="" style="endArrow=none;html=1;rounded=0;" edge="1" parent="X8M3YkZeqbTWGryuC8nD-29">
          <mxGeometry width="50" height="50" relative="1" as="geometry">
            <mxPoint x="50" as="sourcePoint" />
            <mxPoint x="50" y="5" as="targetPoint" />
            <Array as="points">
              <mxPoint x="50" />
            </Array>
          </mxGeometry>
        </mxCell>
        <mxCell id="X8M3YkZeqbTWGryuC8nD-39" value="" style="shape=curlyBracket;whiteSpace=wrap;html=1;rounded=1;flipH=1;labelPosition=right;verticalLabelPosition=middle;align=left;verticalAlign=middle;direction=south;" vertex="1" parent="1">
          <mxGeometry x="50" y="148" width="30" height="10" as="geometry" />
        </mxCell>
        <mxCell id="X8M3YkZeqbTWGryuC8nD-40" value="" style="shape=curlyBracket;whiteSpace=wrap;html=1;rounded=1;flipH=1;labelPosition=right;verticalLabelPosition=middle;align=left;verticalAlign=middle;direction=south;" vertex="1" parent="1">
          <mxGeometry x="260" y="426" width="10" height="10" as="geometry" />
        </mxCell>
        <mxCell id="X8M3YkZeqbTWGryuC8nD-41" value="∂w&lt;sup&gt;(L)&lt;/sup&gt;" style="text;html=1;align=center;verticalAlign=middle;whiteSpace=wrap;rounded=0;" vertex="1" parent="1">
          <mxGeometry x="35" y="110" width="60" height="30" as="geometry" />
        </mxCell>
        <mxCell id="X8M3YkZeqbTWGryuC8nD-42" value="∂C&lt;sub&gt;0&lt;/sub&gt;" style="text;html=1;align=center;verticalAlign=middle;whiteSpace=wrap;rounded=0;" vertex="1" parent="1">
          <mxGeometry x="235" y="400" width="60" height="30" as="geometry" />
        </mxCell>
      </root>
    </mxGraphModel>
  </diagram>
</mxfile>
